/* XPM */
static char * areacopy_xpm[] = {
"32 32 6 1",
" 	c None",
".	c #000000",
"+	c #FFFF00",
"@	c #000080",
"#	c #808000",
"$	c #808080",
"                                ",
"                                ",
"                                ",
"                                ",
"                                ",
"                                ",
"                                ",
"                                ",
"        ........                ",
"        . . . ..                ",
"        .. . . .                ",
"        . . . ..                ",
"        .. . . .                ",
"        . . . ..                ",
"        .. . . .   ..           ",
"        ........  .++.          ",
"                 ..++..         ",
"        @@  @   .#....$.        ",
"        @@  @@  .$#$#$#.        ",
"        @@@@@@@ .#$#$#$.        ",
"         @@@@@@ .$#$#$#.        ",
"            @@  .#$#$#$.        ",
"            @   .$#$#$#.        ",
"                ........        ",
"                                ",
"                                ",
"                                ",
"                                ",
"                                ",
"                                ",
"                                ",
"                                "};
