/* XPM */
static char * areapaste_xpm[] = {
"32 32 6 1",
" 	c None",
".	c #000000",
"+	c #FFFF00",
"@	c #808000",
"#	c #808080",
"$	c #000080",
"                                ",
"                                ",
"                                ",
"                                ",
"                                ",
"                                ",
"          ..                    ",
"         .++.                   ",
"        ..++..                  ",
"       .@....#.                 ",
"       .#@#@#@.                 ",
"       .@#@#@#.                 ",
"       .#@#@#@.                 ",
"       .@#@#@#.                 ",
"       .#@#@#@.                 ",
"       ........                 ",
"                ........        ",
"        $$  $   . . . ..        ",
"        $$  $$  .. . . .        ",
"        $$$$$$$ . . . ..        ",
"         $$$$$$ .. . . .        ",
"            $$  . . . ..        ",
"            $   .. . . .        ",
"                ........        ",
"                                ",
"                                ",
"                                ",
"                                ",
"                                ",
"                                ",
"                                ",
"                                "};
