/* XPM */
static char *close_xpm[] = {
/* columns rows colors chars-per-pixel */
"32 32 257 2",
"   c black",
".  c #F8F4CC",
"X  c #04548C",
"o  c #F87400",
"O  c #F8F8BC",
"+  c #F8F4EC",
"@  c #04609C",
"#  c #F88000",
"$  c #F8F8DC",
"%  c #A41C00",
"&  c #2870D4",
"*  c #F45C00",
"=  c #F46800",
"-  c #1C6CD4",
";  c #54ACF4",
":  c #4494F4",
">  c #348CEC",
",  c #B42400",
"<  c #F4E48C",
"1  c #F4ECAC",
"2  c #F8F8F8",
"3  c #44A0F4",
"4  c #4494E4",
"5  c #F4C82C",
"6  c #84C4F4",
"7  c #E4BC34",
"8  c #287CDC",
"9  c #F88C00",
"0  c #F8F4A0",
"q  c #CC5C00",
"w  c #F8A404",
"e  c #F4CC44",
"r  c #E45000",
"t  c #CCB040",
"y  c #F8D434",
"u  c #0C689C",
"i  c #E49404",
"p  c #F8B004",
"a  c #F89804",
"s  c #00549C",
"d  c #94CCF8",
"f  c #D4D8BC",
"g  c #84A8B4",
"h  c #0C6CAC",
"j  c #F8F094",
"k  c #D47404",
"l  c #D4DCCC",
"z  c #C02800",
"x  c #D06800",
"c  c #74BCF8",
"v  c #F8F8AC",
"b  c #1474BC",
"n  c #C05C0C",
"m  c #B4D8F8",
"M  c #0454CC",
"N  c #E4DCCC",
"B  c #CC2C00",
"V  c #ECD474",
"C  c #E04400",
"Z  c #B0D4EC",
"A  c #649CC4",
"S  c #3898F8",
"D  c #589CD8",
"F  c #6C94B4",
"G  c #5090D4",
"H  c #508CC4",
"J  c #8CBCDC",
"K  c #F0C838",
"L  c #B4D0E0",
"P  c #186CA0",
"I  c #3884DC",
"U  c #745C70",
"Y  c #D03800",
"T  c #74ACCC",
"R  c #D04000",
"E  c #90545C",
"W  c #C0CCBC",
"Q  c #90ACBC",
"!  c #E4E8D4",
"~  c #AC9C50",
"^  c #58BCF8",
"/  c #B44004",
"(  c #1854AC",
")  c #68A8EC",
"_  c #004CC0",
"`  c #2458A0",
"'  c #8CA084",
"]  c #D0B038",
"[  c #F8E060",
"{  c #587080",
"}  c #90B8C8",
"|  c #68B0F8",
" . c #B43400",
".. c #C4D4C8",
"X. c #ECF4F8",
"o. c #C04400",
"O. c #1C6CE0",
"+. c #A0D4F8",
"@. c #5478AC",
"#. c #7884AC",
"$. c #F0E898",
"%. c #F8BC04",
"&. c #F4ECBC",
"*. c #F8E474",
"=. c #1454C0",
"-. c #50A0F8",
";. c #D49454",
":. c #F8D844",
">. c #CC5000",
",. c #006090",
"<. c #1060D0",
"1. c #B4C8BC",
"2. c #E4E0BC",
"3. c #3080B0",
"4. c #308CF8",
"5. c #B8C08C",
"6. c #C86C54",
"7. c #DCAC8C",
"8. c #D4D09C",
"9. c #4488D8",
"0. c #446C8C",
"q. c #A0D0E8",
"w. c #60B0F8",
"e. c #3078A8",
"r. c #982408",
"t. c #ECA000",
"y. c #A44020",
"u. c #1860C0",
"i. c #A46864",
"p. c #2484EC",
"a. c #5C84B0",
"s. c #787898",
"d. c #58A0E4",
"f. c #346494",
"g. c #68A8D8",
"h. c #5094E4",
"j. c #80ACC0",
"k. c #F8D854",
"l. c #6090A0",
"z. c #488CC0",
"x. c #F8D860",
"c. c #1860B0",
"v. c #A04030",
"b. c #983830",
"n. c #A87870",
"m. c #98C8E0",
"M. c #807090",
"N. c #78B0E0",
"B. c #1870B0",
"V. c #C8A088",
"C. c #3060A0",
"Z. c #60A8E8",
"A. c #D85000",
"S. c #B03010",
"D. c #889068",
"F. c #D88000",
"G. c #E0D8B8",
"H. c #70A0C0",
"J. c #307898",
"K. c #A82808",
"L. c #C0C098",
"P. c #D0D0C0",
"I. c #783050",
"U. c #A0B890",
"Y. c #605078",
"T. c #E07808",
"R. c #B0E0F8",
"E. c #80B0D8",
"W. c #106098",
"Q. c #A05030",
"!. c #0058E0",
"~. c #E0C0A0",
"^. c #C86018",
"/. c #585888",
"(. c #982820",
"). c #C8C870",
"_. c #A0B8C8",
"`. c #B8D0C8",
"'. c #A8C8E0",
"]. c #E0C860",
"[. c #98B8B0",
"{. c #3890C8",
"}. c #0060A8",
"|. c #E8D0A8",
" X c #80B0C8",
".X c #C0D8E8",
"XX c #6880C0",
"oX c #E8D060",
"OX c #2868B8",
"+X c #6880A8",
"@X c #F0F0E8",
"#X c #688078",
"$X c #98B0A0",
"%X c #2078A8",
"&X c #A0B0B8",
"*X c #809080",
"=X c #0870C8",
"-X c #5068A0",
";X c #88A090",
":X c #4890B8",
">X c #E0B038",
",X c #98B090",
"<X c #F8C810",
"1X c #B85010",
"2X c #2888C8",
"3X c #6090D0",
"4X c #C0E8F8",
"5X c #8098B0",
"6X c #A03820",
"7X c #A0B8C0",
"8X c #7078A8",
"9X c #E0C0B0",
"0X c #B0B068",
"qX c #D0C8B0",
"wX c #2078C8",
"eX c #2078C0",
"rX c #B84820",
"tX c #4888A8",
"yX c #7898A0",
"uX c #106090",
"iX c #487098",
"pX c #0860C8",
"aX c #902018",
"sX c #E8F0E0",
"dX c #60A0D8",
"fX c #5898C0",
"gX c black",
"hX c black",
"jX c black",
"kX c black",
"lX c black",
"zX c black",
"xX c black",
"cX c black",
"vX c black",
"bX c black",
"nX c black",
"mX c black",
"MX c black",
"NX c black",
"BX c black",
"VX c black",
"CX c black",
"ZX c black",
"AX c black",
"SX c black",
"DX c black",
"FX c black",
"GX c black",
"HX c black",
"JX c black",
"KX c black",
"LX c black",
"PX c black",
"IX c black",
"UX c black",
"YX c None",
/* pixels */
"YXYXYXYXYXYXYXYXYXYXYXYXX X X @ @ u @ @ X X X YXYXYXYXYXYXYXYXYX",
"YXYXYXYXYXYXYXYXYXX X ,.e.A J q.Z m Z m.T :Xu X X YXYXYXYXYXYXYX",
"YXYXYXYXYXYXYXYXX u H J +.d 6 c c c 6 d R.4Xm g.P X YXYXYXYXYXYX",
"YXYXYXYXYXYXX ,.z.6 6 | ; ; | 6 ; w.j.$XU.5.8.f 1.g @ YXYXYXYXYX",
"YXYXYXYXYXX u D J Z.3 3 3 w.6 d c g.7 5 5 5 e < $ 2 L W.YXYXYXYX",
"YXYXYXYXX }.4 [.2.Q d.1...} ; ; ; F K < 1 O . . . . + '.X YXYXYX",
"YXYXYXX @ l.).0 &.G ' 0 $ l ; ; ; ;X5 1 . . O O . . . 2 A X YXYX",
"YXYXYXX 8 H ' 5.T yXV O O ! ; ^ -.0Xy 0 . . O $.. . . $ X.P YXYX",
"YXYXX b 3 S 4.4 ,XoX< |.~.V.8XXX+X>Xy j $ 1 O O O . . . 2 H.X YX",
"YXX @ > : : S U >./ o.>.q q x x q n n ;.&.. O . . . . . + .XX YX",
"YXX b S D L.j./.I.aX .r o 9 9 a w p i o.rX7.O v 0 . . O $ X.P YX",
"YX@ p.A ].+ + `.T G @.U v.R * o # # a p i q ^.7 e O $ . + 2 tXYX",
"X h I t j $ + 2 + ! l W D #.b.R o # # # a %.k y.7 v + G.l P.J.YX",
"X =X*Xe . O O . $ $ 2 N G : h.U , * # # # 9 p k n j $ f } m 3.YX",
"@ c.t [ . O O . . . + W 9.4 4 -.s., * # # # # p q ;.. + ..m 3.YX",
"s 0.5 < . $.O . . . + g > h.) d +.M., = # # # 9 t.1X1 2 ! Z %XYX",
"s { 5 < O v 1 . . + qXz.9.dXN.d.) 6 E Y o o # o w x 7.2 2.q.u YX",
"s ( 7 *.. . . . $ $ 8.f N l W Q H : 3XS.r o o o 9 i 6.sXL E.X YX",
"s _ D.y 0 1 O v j 0 O $ $ $ + + N g ; E B = o o o w n n.i.y.r.YX",
"@ pX( ] k.k.y e K K e < . . . . + 7X^ #., r o o o w i x t.F.% YX",
"X wX!.f.7 7 #XC.f.~ 5 < O O . . +  X^ ) K.Y o o o 9 <Xw %.k % YX",
"X b 4.M iX@.- O.M ~ :.O O 1 . . @X5Xs.E , Y * o o o # o w q % YX",
"YX@ > > - O.8 8 =.7 :.x.< 1 . . 6., z B C r * o o o o o p  .% YX",
"YXX b 3 8 & & & _ ~ t t 5 e < O 9X6Xz C * = = = = o o # i % YXYX",
"YXX @ > : & - & <.u.u.=.0.t y 1 + F Y., B r * = = = = a k % YXYX",
"YXYXX h : > - - & & & - M ( ] *.$ Q p.-X(.z C * = = = a / % YXYX",
"YXYXYXX h : : & - - & & 8 M { [ $ &X- I a.Q.z r * * o T.% YXYXYX",
"YXYXYXYXX h > 3 > & - - & <.` V . a.g N + + i., * * o / % YXYXYX",
"YXYXYXYXYXX @ eX4 3 : > I 8 ` V _.4 f 2 L fXuXr.B * A.% YXYXYXYX",
"YXYXYXYXYXYXYXX @ B.2X4 3 : OXF 4 {.l.e.X X YXYX% R , % YXYXYXYX",
"YXYXYXYXYXYXYXYXYXX X X @ @ @ @ s X X YXYXYXYXYX% % % YXYXYXYXYX",
"YXYXYXYXYXYXYXYXYXYXYXYXYXYXYXYXYXYXYXYXYXYXYXYXYXYXYXYXYXYXYXYX"
};
