/* XPM */
static char * eye_xpm[] = {
"16 16 7 1",
" 	c None",
".	c #808080",
"+	c #C0C0C0",
"@	c #FFFFFF",
"#	c #000000",
"$	c #008080",
"%	c #00FFFF",
"...............+",
".              @",
".              @",
".     ####     @",
".   ##$$$$##   @",
".  #@$%%%%$@#  @",
". #@$%%$$%%$@# @",
".#@@$%$##$%$@@#@",
".#@@$%$##$%$@@#@",
". #@$%%$$%%$@# @",
".  #@$%%%%$@#  @",
".   ##$$$$##   @",
".     ####     @",
".              @",
".              @",
"+@@@@@@@@@@@@@@@"};
