/* XPM */
static char * eyeclose_xpm[] = {
"16 16 5 1",
" 	c None",
".	c #FFFFFF",
"+	c #C0C0C0",
"@	c #808080",
"#	c #000000",
"...............+",
".              @",
".              @",
".              @",
".              @",
".              @",
".              @",
".              @",
".#            #@",
". #          # @",
".  #        #  @",
".   ##    ##   @",
".     ####     @",
".              @",
".              @",
"+@@@@@@@@@@@@@@@"};
