/* XPM */
static char *folder_xpm[] = {
/* columns rows colors chars-per-pixel */
"32 32 129 2",
"   c black",
".  c #F8F8F4",
"X  c #AC6404",
"o  c #F8F404",
"O  c #F4B400",
"+  c #F4CC04",
"@  c #F8A400",
"#  c #F8C000",
"$  c #F8DC04",
"%  c #F89400",
"&  c #F8F4B4",
"*  c #B86C04",
"=  c #F8F8E4",
"-  c #BC7C04",
";  c #F8F4D4",
":  c #F4F4C4",
">  c #F48404",
",  c #F4F4A4",
"<  c #F8F484",
"1  c #F8F494",
"2  c #F8E800",
"3  c #F4DC74",
"4  c #F8F414",
"5  c #F4E484",
"6  c #F8F464",
"7  c #F8DC44",
"8  c #F8F438",
"9  c #DC9C04",
"0  c #F8F850",
"q  c #F4E454",
"w  c #B87C14",
"e  c #F8A414",
"r  c #B07000",
"t  c #F8B414",
"y  c #F8DC14",
"u  c #E0B004",
"i  c #C08C38",
"p  c #F4E4D4",
"a  c #F8CC8C",
"s  c #BC8424",
"d  c #F8E4A4",
"f  c #F8A42C",
"g  c #E0C098",
"h  c #C89844",
"j  c #F4E8E4",
"k  c #CC9400",
"l  c #F8F444",
"z  c #F8C824",
"x  c #E8E0C8",
"c  c #F8DC30",
"v  c #F8F078",
"b  c #C89850",
"n  c #F8CC18",
"m  c #F8E864",
"M  c #D0A868",
"N  c #F8E8C0",
"B  c #CCA058",
"V  c #F8BC54",
"C  c #706048",
"Z  c #F8B468",
"A  c #DCBC60",
"S  c #F8C018",
"D  c #E8D4B4",
"F  c #F8D824",
"G  c #E0B434",
"H  c #E0C488",
"J  c #D4B474",
"K  c #B87010",
"L  c #F8E878",
"P  c #D4B044",
"I  c #F8F82C",
"U  c #F8CC40",
"Y  c #D0A000",
"T  c #E0A800",
"R  c #C08810",
"E  c #F8D030",
"W  c #F8E828",
"Q  c #F8B830",
"!  c #F8D898",
"~  c #F8B820",
"^  c #C89828",
"/  c #E8D898",
"(  c #E8D020",
")  c #F8C040",
"_  c #C87000",
"`  c #886028",
"'  c #F8D860",
"]  c #D8B020",
"[  c #C88818",
"{  c #F8C870",
"}  c #F8E090",
"|  c #E0B840",
" . c #E8B050",
".. c #C88800",
"X. c #E0C848",
"o. c #E8A000",
"O. c #F8E0B8",
"+. c black",
"@. c black",
"#. c black",
"$. c black",
"%. c black",
"&. c black",
"*. c black",
"=. c black",
"-. c black",
";. c black",
":. c black",
">. c black",
",. c black",
"<. c black",
"1. c black",
"2. c black",
"3. c black",
"4. c black",
"5. c black",
"6. c black",
"7. c black",
"8. c black",
"9. c black",
"0. c black",
"q. c black",
"w. c black",
"e. c black",
"r. c black",
"t. c black",
"y. c black",
"u. c black",
"i. c None",
/* pixels */
"i.i.i.i.i.i.i.i.i.i.i.i.i.i.i.i.i.i.i.i.i.i.i.X X X r X i.i.i.i.",
"i.i.i.i.i.i.i.i.i.i.i.i.i.i.i.i.i.i.i.i.X X * s M g D * i.i.i.i.",
"i.i.i.i.i.i.i.i.i.i.i.i.i.i.i.i.i.X X K h g p . . . . - i.i.i.i.",
"i.i.i.i.i.i.i.i.i.i.i.i.i.i.X X X i g j . . & v l : . w X i.i.i.",
"i.i.i.i.i.i.i.i.i.i.i.i.X X K M x . = 1 q y $ $ $ & . s X i.i.i.",
"i.i.i.i.i.i.i.i.i.i.i.X X b p . = 5 y + + $ $ $ $ , . s X i.i.i.",
"i.i.i.i.i.i.i.i.i.X r B x . & 7 + + + + + + y F + < . i X i.i.i.",
"i.i.i.i.i.i.i.X X b x = 5 z # # # # + 7 5 : . & + m . h X i.i.i.",
"i.i.i.i.i.X X i D ; 3 S O O O O z 3 ; . . . . = + 7 . B X i.i.i.",
"i.i.i.i.X w H : 3 t @ O O O U d . . . . = & . . E n . J X i.i.i.",
"i.i.X X h : 5 t @ @ @ @ ) N . . . . : 6 4 o & . ' # ; J X i.i.i.",
"i.X * A d V % @ @ @ Q ! . . . . : 0 o o o o < . } O & H X i.i.i.",
"i.X P 3 e % % % % a . . . . . . = & 4 o o o 8 . ; O L / X i.i.i.",
"i.X * > % % % % % a . . . . . . . . < o o o o ; . ~ U , * i.i.i.",
"i.i.C * > > % > > f . . . . . . . . & o o o o 1 . { t 1 w X i.i.",
"i.i.i.C * > > > Z p . . . . . . . . , o o o o 8 . N @ v ^ X i.i.",
"i.i.i.i.` _ f d . . . . . . . . . . < o o o o o = . e q P X i.i.",
"i.i.* X w A & & < 0 8 0 , . . . . . 0 o o o o o < . V z X.X i.i.",
"i.X * G m 6 8 4 2 2 2 2 2 6 = . . = 4 o o o o o I . O.e q * i.i.",
"i.X X u o $ + + + + $ $ $ $ v ; = 1 4 l 6 6 0 4 o & . f c R X i.",
"i.i.X X u $ # # + + + + + + c & : & ; . . . . ; I 8 . a S ] X i.",
"i.i.i.X * + + O # # # + + + 7 , , & , 1 & = . . < o : j e ( X i.",
"i.i.i.i.X - $ + O O O # # # $ W F n + + $ 1 ; . < o l . Z + - i.",
"i.i.i.i.i.X k $ O O O O O O # # # # + + + q : ; q o o 1 j t k i.",
"i.i.i.i.i.i.X u + @ @ @ O O O O O O # # # 3 , , y 2 2 $ 5  .- i.",
"i.i.i.i.i.i.X - # O @ @ @ @ @ O O O O O 7 L 3 | Y k - * * r X i.",
"i.i.i.i.i.i.i.X 9 O % % @ @ @ @ @ O + c G [ * X X X X i.i.i.i.i.",
"i.i.i.i.i.i.i.X - O % % % % @ O # O 9 - X X X i.i.i.i.i.i.i.i.i.",
"i.i.i.i.i.i.i.i.X 9 @ > @ O # T ..r X X i.i.i.i.i.i.i.i.i.i.i.i.",
"i.i.i.i.i.i.i.i.X - @ @ O 9 - X X i.i.i.i.i.i.i.i.i.i.i.i.i.i.i.",
"i.i.i.i.i.i.i.i.i.X 9 o.- X X i.i.i.i.i.i.i.i.i.i.i.i.i.i.i.i.i.",
"i.i.i.i.i.i.i.i.i.X * X X i.i.i.i.i.i.i.i.i.i.i.i.i.i.i.i.i.i.i."
};
