/* XPM */
static char * picker_xpm[] = {
"32 32 5 1",
" 	c None",
".	c #000000",
"+	c #808000",
"@	c #800000",
"#	c #FFFFFF",
"                                ",
"                                ",
"                                ",
"                                ",
"                                ",
"                                ",
"                                ",
"                                ",
"                                ",
"                                ",
"                 ....           ",
"                ..+@..          ",
"               ..+@+@.          ",
"               .+@+@+.          ",
"              ...+@+..          ",
"             ..##.+..           ",
"            ..###...            ",
"           ..###..              ",
"          ..###..               ",
"          .###..                ",
"          ..#..                 ",
"         . ...                  ",
"          .                     ",
"                                ",
"                                ",
"                                ",
"                                ",
"                                ",
"                                ",
"                                ",
"                                ",
"                                "};
