/* XPM */
static char *save_xpm[] = {
/* columns rows colors chars-per-pixel */
"32 32 129 2",
"   c black",
".  c #A41C00",
"X  c #606074",
"o  c #BCBCC4",
"O  c #F87C00",
"+  c #F4F4F4",
"@  c #F85404",
"#  c #F86404",
"$  c #F47004",
"%  c #5C5874",
"&  c #E8ECF4",
"*  c #F88800",
"=  c #5C6484",
"-  c #74748C",
";  c #A8A8B4",
":  c #CCD4E4",
">  c #F4B400",
",  c #AC6804",
"<  c #F89400",
"1  c #BCC0D0",
"2  c #9C9CB0",
"3  c #F8C004",
"4  c #686880",
"5  c #F4A400",
"6  c #C8C4D0",
"7  c #F8CC00",
"8  c #F8EC04",
"9  c #F8DC00",
"0  c #CCD0D4",
"q  c #E08400",
"w  c #B42400",
"e  c #E0E0E4",
"r  c #C44C04",
"t  c #E45400",
"y  c #B4B0BC",
"u  c #F8F864",
"i  c #D44C00",
"p  c #F8F89C",
"a  c #D87800",
"s  c #B87408",
"d  c #8C8C9C",
"f  c #BCC8DC",
"g  c #C43400",
"h  c #CC703C",
"j  c #A82808",
"k  c #808090",
"l  c #D06C00",
"z  c #F0D0C0",
"x  c #F8C824",
"c  c #D44000",
"v  c #C8C8D8",
"b  c #F8F8D8",
"n  c #B85C28",
"m  c #D8DCE0",
"M  c #C04C18",
"N  c #AC8070",
"B  c #E4D8D8",
"V  c #F8F878",
"C  c #C09484",
"Z  c #F86010",
"A  c #C48428",
"S  c #C0B0AC",
"D  c #F8EC64",
"F  c #A0A8BC",
"G  c #B03000",
"H  c #F47C3C",
"J  c #F0E8C4",
"K  c #ECC0B4",
"L  c #C85804",
"P  c #F0B090",
"I  c #F8A810",
"U  c #F0E0D0",
"Y  c #E0B858",
"T  c #F88840",
"R  c #F0D010",
"E  c #F8F808",
"W  c #F8E038",
"Q  c #D87830",
"!  c #D88000",
"~  c #B83000",
"^  c #C84000",
"/  c #A83810",
"(  c #D07848",
")  c #785860",
"_  c #C0C8D0",
"`  c #788098",
"'  c #F8F8B8",
"]  c #A07030",
"[  c #C06030",
"{  c #E0C878",
"}  c #F8F888",
"|  c #F0A880",
" . c #D89070",
".. c #E08860",
"X. c #D8B048",
"o. c #F8F830",
"O. c #E8E8A8",
"+. c #C89848",
"@. c #804848",
"#. c gray72",
"$. c #807080",
"%. c #E89800",
"&. c #C89020",
"*. c #B07050",
"=. c #E8C880",
"-. c #E0C848",
";. c #A89890",
":. c #E07840",
">. c #9898A8",
",. c #C8A098",
"<. c #E0B0A0",
"1. c #D0C8B0",
"2. c #F8F8E0",
"3. c #787068",
"4. c #F8D828",
"5. c #E8D898",
"6. c #D0A838",
"7. c #704858",
"8. c #A05848",
"9. c #A08080",
"0. c #A04028",
"q. c #F87828",
"w. c #987070",
"e. c #F87020",
"r. c #B8A898",
"t. c #D8B098",
"y. c #C88800",
"u. c black",
"i. c None",
/* pixels */
"i.i.i.i.i.i.i.i.i.i.i.i.i.i.i.i.i.i.i.i.i.i.i.i.i.i.i.i.i.i.i.i.",
"i.i.i.i.i.i.i.i.i.i.i.i.i.i.i.i.i.i.i.i.i.i.i.i.i.i.i.i.i.i.i.i.",
"i.i.i.i.i.i.i.i.i.i.i.i.i.i.i.i.i.i.i.i.i.i.i.i.i.i.i.i.i.i.i.i.",
"i.i.i.i.i.i.i.i.i.i.i.i.i.i.i.i.i.i.i.i.i.i.X % X ] A +.A , , i.",
"i.i.i.i.i.i.i.i.i.i.i.i.i.i.i.i.i.i.i.i.i.% 4 2 0 O.b + 2.{ s , ",
"i.i.i.i.i.i.i.i.i.i.i.i.i.i.i.i.i.i.i.i.% ` e + b V p ' p p -., ",
"i.i.i.i.i.i.i.i.i.i.i.i.i.i.i.i.i.i.i.. $.& + + J D D u u V } &.",
"i.i.i.i.i.i.i.i.i.i.i.i.i.i.i.i.i.. . L U + e & J W 8 8 8 E u X.",
"i.i.i.i.i.i.i.i.i.i.i.i.i.i.i.i.. G q x + & 6 & + 4.9 9 9 8 o.6.",
"i.i.i.i.i.i.i.i.i.i.i.i.i.i.. . r > 7 x + : o e + 5.7 7 7 9 R s ",
"i.i.i.i.i.i.i.i.i.i.i.i.i.. . a 3 3 > I B _ o 1 e & =.3 3 3 y., ",
"i.i.i.i.i.i.i.i.i.i.i.i.. G %.7 > 5 < * t.f o o o 0 : 1.Y s , i.",
"i.i.i.i.i.i.i.i.i.i.i.. r 5 > < * * * O Q 6 o o o o 1 v o k X i.",
"i.i.i.i.i.i.i.i.i.. . L > 5 * O O O O O i h S o o o o y m ; % i.",
"i.i.i.i.i.i.i.i.. . l > * O O O O O O $ i c r N 2 y o m : - X i.",
"i.i.i.i.i.i.i.. . a 5 O $ $ $ $ O O O t ^ M N #.6 o 2 - X X i.i.",
"i.i.i.i.i.i.. . q < $ # # # $ $ $ $ t r *.y f ; - X % X i.i.i.i.",
"i.i.i.i.i.. . q < # # # H q.# # # i n ;.1 2 4 % X i.i.i.i.i.i.i.",
"i.i.i.i.. . q * @ @ T z + | @ t g 0.; F - % X i.i.i.i.i.i.i.i.i.",
"i.i.i.. . ! * @ @ P + & B e.c w 8.; d X X i.i.i.i.i.i.i.i.i.i.i.",
"i.i.i.. a < @ Z K & : 0 :.g j w.1 ; = X i.i.i.i.i.i.i.i.i.i.i.i.",
"i.i.7.l < @ Z K : v 6 ( w j 9.1 & & ; X i.i.i.i.i.i.i.i.i.i.i.i.",
"i.= 3.5 # @ <.: 1 S [ w . ) F 0 6 o d X i.i.i.i.i.i.i.i.i.i.i.i.",
"i.= r.$ @ ..f o C M w . i.= d o ; k X X i.i.i.i.i.i.i.i.i.i.i.i.",
"X - + H @  .,.h g . . i.i.= 4 - 4 X X i.i.i.i.i.i.i.i.i.i.i.i.i.",
"% 2 + z # @ t ~ . . i.i.i.i.X X X i.i.i.i.i.i.i.i.i.i.i.i.i.i.i.",
"% o + : C n / . i.i.i.i.i.i.i.i.i.i.i.i.i.i.i.i.i.i.i.i.i.i.i.i.",
"= y >.- = = @.i.i.i.i.i.i.i.i.i.i.i.i.i.i.i.i.i.i.i.i.i.i.i.i.i.",
"X 4 X X X i.i.i.i.i.i.i.i.i.i.i.i.i.i.i.i.i.i.i.i.i.i.i.i.i.i.i.",
"i.i.i.i.i.i.i.i.i.i.i.i.i.i.i.i.i.i.i.i.i.i.i.i.i.i.i.i.i.i.i.i.",
"i.i.i.i.i.i.i.i.i.i.i.i.i.i.i.i.i.i.i.i.i.i.i.i.i.i.i.i.i.i.i.i.",
"i.i.i.i.i.i.i.i.i.i.i.i.i.i.i.i.i.i.i.i.i.i.i.i.i.i.i.i.i.i.i.i."
};
