/* XPM */
static char * sph_game_xpm[] = {
"32 32 7 1",
" 	c None",
".	c #00FFFF",
"+	c #008080",
"@	c #FFFFFF",
"#	c #0000FF",
"$	c #000080",
"%	c #808080",
"                                ",
"                                ",
"                                ",
"                                ",
"                                ",
"             ......             ",
"          ...........+          ",
"         ...........+.+         ",
"        ..@.@........+.+        ",
"       ..@.@.@......+.+.+       ",
"      ..@.@@@........+.+++      ",
"      ...@@@.@......+.+.++      ",
"      ..@.@.@......+.+..++      ",
"    #....@..........+.+++++$    ",
"  ###..............+.+.+++%#$#  ",
"#####.............+.+..++%+$#$#$",
"#####............+.+.+++++%#$#$#",
"  ###...........+.+.+.+++%+$#$  ",
"    ###........+.+.+.++++#$#    ",
"      ###...+.+.+.+.+++$#$      ",
"      .+####.+.+.+.+##$#+%      ",
"      +.+.############%+%+      ",
"       +.+.+########+%+%+       ",
"        +.+..+####%+%+%+        ",
"         ++++++++%+%+%+         ",
"          ++++%+%+%+%+          ",
"             %+%+%+             ",
"                                ",
"                                ",
"                                ",
"                                ",
"                                "};
